# Blender 4.0.2
# www.blender.org
mtllib scene_walls.mtl
o Plane
v -3.872431 0.000000 -3.872431
v -3.872431 0.000000 3.872431
v 3.872431 0.000000 3.872431
v 3.872431 0.000000 -3.872431
v -3.872431 3.000000 -3.872431
v -3.872431 3.000000 3.872431
v 3.872431 3.000000 3.872431
v 3.872431 3.000000 -3.872431
vn -0.0000 1.0000 -0.0000
vn -0.0000 -0.0000 -1.0000
vn -0.0000 -0.0000 1.0000
vn -1.0000 -0.0000 -0.0000
vn 1.0000 -0.0000 -0.0000
vt 0.688091 0.518615
vt 0.218399 0.988307
vt 0.218399 0.518615
vt 0.008503 0.062780
vt 0.715890 0.336789
vt 0.715890 0.062780
vt 0.008503 0.336789
vt 0.688091 0.988307
s 0
usemtl Material.002
f 3/1/1 1/2/1 2/3/1
f 2/4/2 7/5/2 3/6/2
f 4/6/3 5/7/3 1/4/3
f 3/4/4 8/5/4 4/6/4
f 1/6/5 6/7/5 2/4/5
f 3/1/1 4/8/1 1/2/1
f 2/4/2 6/7/2 7/5/2
f 4/6/3 8/5/3 5/7/3
f 3/4/4 7/7/4 8/5/4
f 1/6/5 5/5/5 6/7/5
