# Blender 4.0.2
# www.blender.org
mtllib scene_table.mtl
o Cube
v -1.000000 1.084691 1.000000
v -1.000000 0.915309 1.000000
v -1.000000 1.084691 -1.000000
v -1.000000 0.915309 -1.000000
v 1.000000 1.084691 1.000000
v 1.000000 0.915309 1.000000
v 1.000000 1.084691 -1.000000
v 1.000000 0.915309 -1.000000
v 0.723372 -0.019617 -0.721264
v 0.667966 0.931702 -0.665858
v 0.723372 -0.019617 -0.826672
v 0.667966 0.931702 -0.882078
v 0.828780 -0.019617 -0.721264
v 0.884186 0.931702 -0.665858
v 0.828780 -0.019617 -0.826672
v 0.884186 0.931702 -0.882078
v 0.723372 -0.019617 0.881694
v 0.667966 0.931702 0.937100
v 0.723372 -0.019617 0.776286
v 0.667966 0.931702 0.720881
v 0.828780 -0.019617 0.881694
v 0.884186 0.931702 0.937100
v 0.828780 -0.019617 0.776286
v 0.884186 0.931702 0.720881
v -0.766023 -0.019617 0.881694
v -0.821429 0.931702 0.937100
v -0.766023 -0.019617 0.776286
v -0.821429 0.931702 0.720881
v -0.660615 -0.019617 0.881694
v -0.605209 0.931702 0.937100
v -0.660615 -0.019617 0.776286
v -0.605209 0.931702 0.720881
v -0.766023 -0.019617 -0.715648
v -0.821429 0.931702 -0.660242
v -0.766023 -0.019617 -0.821056
v -0.821429 0.931702 -0.876462
v -0.660615 -0.019617 -0.715648
v -0.605209 0.931702 -0.660242
v -0.660615 -0.019617 -0.821056
v -0.605209 0.931702 -0.876462
vn -1.0000 -0.0000 -0.0000
vn -0.0000 -0.0000 -1.0000
vn 1.0000 -0.0000 -0.0000
vn -0.0000 -0.0000 1.0000
vn -0.0000 1.0000 -0.0000
vn -0.0000 -1.0000 -0.0000
vn -0.9983 -0.0581 -0.0000
vn -0.0000 -0.0581 -0.9983
vn 0.9983 -0.0581 -0.0000
vn -0.0000 -0.0581 0.9983
vt 2.004606 1.264496
vt -0.936570 1.015405
vt -0.936570 1.264496
vt 1.933672 1.264496
vt -1.007504 1.015405
vt -1.007504 1.264496
vt 2.004606 1.015405
vt 1.933672 1.015405
vt -1.007504 -0.936570
vt 1.933672 2.004606
vt -1.007504 2.004606
vt 1.933672 -0.936570
vt 1.513221 1.039511
vt 1.749712 -0.359487
vt 1.594700 -0.359487
vt 1.526866 -0.359487
vt 1.763357 1.039511
vt 1.681878 -0.359487
vt 1.831191 1.039511
vt 1.445387 1.039511
vt 1.681878 1.749712
vt 1.526866 1.594700
vt 1.526866 1.749712
vt 1.445387 1.831191
vt 1.763357 1.513221
vt 1.763357 1.831191
vt -0.844071 1.039511
vt -0.607580 -0.359487
vt -0.762591 -0.359487
vt -0.526101 1.039511
vt 1.681878 -0.607580
vt 1.526866 -0.762591
vt 1.526866 -0.607580
vt 1.445387 -0.526101
vt 1.763357 -0.844071
vt 1.763357 -0.526101
vt -0.663420 -0.359487
vt -0.426929 1.039511
vt -0.508408 -0.359487
vt -0.508408 -0.607580
vt -0.663420 -0.762591
vt -0.663420 -0.607580
vt -0.744899 -0.526101
vt -0.426929 -0.844071
vt -0.426929 -0.526101
vt 1.504962 1.039511
vt 1.741453 -0.359487
vt 1.586442 -0.359487
vt 1.822933 1.039511
vt -0.744899 1.039511
vt -0.508408 1.741453
vt -0.663420 1.586442
vt -0.663420 1.741453
vt -0.744899 1.822933
vt -0.426929 1.504962
vt -0.426929 1.822933
vt 1.681878 1.594700
vt 1.445387 1.513221
vt 1.681878 -0.762591
vt 1.445387 -0.844071
vt -0.508408 -0.762591
vt -0.744899 -0.844071
vt -0.508408 1.586442
vt -0.744899 1.504962
s 0
usemtl Material.001
f 3/1/1 2/2/1 1/3/1
f 7/4/2 4/5/2 3/6/2
f 5/3/3 8/7/3 7/1/3
f 1/6/4 6/8/4 5/4/4
f 1/9/5 7/10/5 3/11/5
f 6/12/6 4/11/6 8/10/6
f 10/13/7 11/14/7 9/15/7
f 11/16/8 16/17/8 15/18/8
f 16/19/9 13/15/9 15/14/9
f 13/18/10 10/20/10 9/16/10
f 15/21/6 9/22/6 11/23/6
f 12/24/5 14/25/5 16/26/5
f 18/27/7 19/28/7 17/29/7
f 19/16/8 24/17/8 23/18/8
f 24/30/9 21/29/9 23/28/9
f 22/17/10 17/16/10 21/18/10
f 23/31/6 17/32/6 19/33/6
f 20/34/5 22/35/5 24/36/5
f 26/27/7 27/28/7 25/29/7
f 27/37/8 32/38/8 31/39/8
f 32/30/9 29/29/9 31/28/9
f 30/38/10 25/37/10 29/39/10
f 31/40/6 25/41/6 27/42/6
f 28/43/5 30/44/5 32/45/5
f 34/46/7 35/47/7 33/48/7
f 35/37/8 40/38/8 39/39/8
f 40/49/9 37/48/9 39/47/9
f 37/39/10 34/50/10 33/37/10
f 39/51/6 33/52/6 35/53/6
f 36/54/5 38/55/5 40/56/5
f 3/1/1 4/7/1 2/2/1
f 7/4/2 8/8/2 4/5/2
f 5/3/3 6/2/3 8/7/3
f 1/6/4 2/5/4 6/8/4
f 1/9/5 5/12/5 7/10/5
f 6/12/6 2/9/6 4/11/6
f 10/13/7 12/19/7 11/14/7
f 11/16/8 12/20/8 16/17/8
f 16/19/9 14/13/9 13/15/9
f 13/18/10 14/17/10 10/20/10
f 15/21/6 13/57/6 9/22/6
f 12/24/5 10/58/5 14/25/5
f 18/27/7 20/30/7 19/28/7
f 19/16/8 20/20/8 24/17/8
f 24/30/9 22/27/9 21/29/9
f 22/17/10 18/20/10 17/16/10
f 23/31/6 21/59/6 17/32/6
f 20/34/5 18/60/5 22/35/5
f 26/27/7 28/30/7 27/28/7
f 27/37/8 28/50/8 32/38/8
f 32/30/9 30/27/9 29/29/9
f 30/38/10 26/50/10 25/37/10
f 31/40/6 29/61/6 25/41/6
f 28/43/5 26/62/5 30/44/5
f 34/46/7 36/49/7 35/47/7
f 35/37/8 36/50/8 40/38/8
f 40/49/9 38/46/9 37/48/9
f 37/39/10 38/38/10 34/50/10
f 39/51/6 37/63/6 33/52/6
f 36/54/5 34/64/5 38/55/5
